<?xml version="1.0" standalone="no"?>
<!DOCTYPE svg PUBLIC "-//W3C//DTD SVG 20010904//EN"
 "http://www.w3.org/TR/2001/REC-SVG-20010904/DTD/svg10.dtd">
<svg version="1.0" xmlns="http://www.w3.org/2000/svg"
 width="260.000000pt" height="260.000000pt" viewBox="0 0 260.000000 260.000000"
 preserveAspectRatio="xMidYMid meet">
<metadata>
Created by potrace 1.14, written by Peter Selinger 2001-2017
</metadata>
<g transform="translate(0.000000,260.000000) scale(0.100000,-0.100000)"
fill="#000000" stroke="none">
<path d="M1420 1525 l0 -755 70 0 70 0 0 101 0 102 31 -39 c69 -87 165 -145
274 -165 77 -14 214 -6 285 17 316 103 450 493 279 812 -59 109 -205 211 -340
237 -187 35 -357 -12 -469 -131 l-50 -53 0 37 c-1 20 -2 161 -3 312 l-2 275
-72 2 -73 2 0 -754z m692 165 c137 -51 234 -192 243 -354 14 -243 -137 -428
-363 -443 -171 -11 -312 66 -381 211 -60 123 -62 272 -5 391 51 109 156 193
267 214 67 14 177 5 239 -19z"/>
<path d="M247 2182 c-16 -3 -17 -57 -17 -713 l0 -709 75 0 c64 0 75 2 76 18 0
9 2 109 2 222 l2 205 210 2 c315 2 384 12 504 70 71 35 160 119 191 179 13 27
25 51 25 54 1 3 7 23 13 46 44 151 3 346 -94 454 -81 90 -223 154 -370 166
-82 7 -588 11 -617 6z m664 -148 c196 -46 290 -173 276 -374 -9 -131 -66 -216
-182 -270 -83 -39 -177 -49 -415 -47 l-205 2 -1 353 -1 353 235 -2 c158 -1
254 -6 293 -15z"/>
</g>
</svg>
